<svg id="b59c9f89-c93e-413f-a14b-776784e615e2" height="auto" width="75%"  xmlns="http://www.w3.org/2000/svg" viewBox="0 0 1075.52 646.9">
  <defs>
    <style>
      .cls-1 {
        fill: #d0cde1;
      }

      .cls-2 {
        fill: #3f3d56;
      }

      .cls-3 {
        fill: #d32c00;
      }

      .cls-4 {
        fill: #fff;
      }

      .cls-5 {
        fill: #a0616a;
      }

      .cls-6 {
        fill: #2f2e41;
      }

      .cls-7 {
        fill: #575a89;
      }
    </style>
  </defs>
  <title>undraw_sign_in_e6hj</title>
  <path class="cls-1" d="M74.35,607l63.43-91.14-63.46,101,0,10.37q-6.78-.06-13.43-.44c0-2.36,5.37-131.9,5.14-134.24.31-.09.49-12.26.61-12.79L.34,380.23l66.33,90.16.2,2.67,3.94-100.65-57-103.07,57.42,85.39c0-1.37,2.72-208,2.74-209.3,0,.68,1.26,164.45,1.26,165.14l54.48-65.92L75.21,324.74l-.28,90.08,50.56-87.11c-63.09,127-49.13,82.58-50.74,150.44l73.43-121.29L74.69,495.63Z" transform="translate(0 0)"/>
  <path class="cls-1" d="M1044.75,619.38l26.43-38-26.45,42.11v4.32c-1.89,0-3.75-.08-5.6-.18,0-1,2.24-55,2.14-55.94.13,0,.21-5.11.26-5.33l-27.62-41.5,27.65,37.57.08,1.11,1.64-41.94-23.74-42.95,23.93,35.58c0-.57,1.13-86.69,1.14-87.22,0,.28.52,68.53.53,68.82l22.7-27.47-22.72,33.37-.12,37.54,21.07-36.3c-26.29,52.94-20.48,34.41-21.15,62.69l30.61-50.54L1044.89,573Z" transform="translate(0 0)"/>
  <ellipse class="cls-1" cx="536" cy="625.9" rx="536" ry="21"/>
  <rect class="cls-2" x="184" y="248.03" width="612" height="364.87"/>
  <path class="cls-3" d="M335.46,248A146.36,146.36,0,0,1,189.14,392c-1.72,0-3.43,0-5.14-.09V248Z" transform="translate(0 0)"/>
  <path class="cls-3" d="M519.94,612.9H461.73a31,31,0,0,1,58.21,0Z" transform="translate(0 0)"/>
  <path class="cls-3" d="M796,424.17v122.9a61.52,61.52,0,0,1,0-122.9Z" transform="translate(0 0)"/>
  <path class="cls-4" d="M297.49,380.61H683.57a18,18,0,0,1,18,18h0a18,18,0,0,1-18,18H297.49a18,18,0,0,1-18-18h0A18,18,0,0,1,297.49,380.61Z" transform="translate(0 0)"/>
  <path class="cls-4" d="M297.49,451.68H683.57a18,18,0,0,1,18,18h0a18,18,0,0,1-18,18H297.49a18,18,0,0,1-18-18h0A18,18,0,0,1,297.49,451.68Z" transform="translate(0 0)"/>
  <path class="cls-4" d="M571.63,522.74H683.57a18,18,0,0,1,18,18h0a18,18,0,0,1-18,18H571.63a18,18,0,0,1-18-18h0A18,18,0,0,1,571.63,522.74Z" transform="translate(0 0)"/>
  <path class="cls-5" d="M893.05,112.12s16.83,6.54,17.77,28-4.68,81.34-4.68,81.34,20.57,29.91,4.68,38.33-17.77-33.66-17.77-33.66l-18.7-88.82S885.57,111.18,893.05,112.12Z" transform="translate(0 0)"/>
  <path class="cls-5" d="M721,181.3s-40.2,26.18-42.07,5.61,12.16-101,12.16-101,1.87-34.59,21.5-26.18S707,97.16,707,97.16l2.81,65.45,18.69-.94Z" transform="translate(0 0)"/>
  <path class="cls-6" d="M785.53,205.61s-123.41-45.81-116.86,7.48S707,333.7,707,333.7l11.22,17.76h23.37l-15-96.3s53.3,29.92,69.19,25.25c0,0,20.57,137.43,28,147.72s20.57,134.63,20.57,134.63l12.15,15H880V367.36s40.2-130.89,9.35-137.44S785.53,205.61,785.53,205.61Z" transform="translate(0 0)"/>
  <path class="cls-6" d="M715.42,339.31s-5.61-10.29-15,0-31.79,22.44-31.79,22.44-48.62,11.22-9.35,20.56,43.94,0,43.94,0,6.55,1.87,12.16,3.74,42.07-4.67,42.07-10.28-12.38-39.13-17.41-34.06S715.42,339.31,715.42,339.31Z" transform="translate(0 0)"/>
  <path class="cls-6" d="M858.38,568.46s-13.78-11.35-17-8.11-20.27,25.14-20.27,25.14S775.67,620.36,817,626,856,616.3,856,616.3h13c1.62,0,23.52-9.73,22.71-13.78s-10.54-37.12-13.79-34.78S858.38,568.46,858.38,568.46Z" transform="translate(0 0)"/>
  <circle class="cls-5" cx="733.18" cy="44.8" r="31.79"/>
  <path class="cls-5" d="M755.62,41.06s24.31,20.57,41.13,20.57S772.45,100,772.45,100L736,67.24Z" transform="translate(0 0)"/>
  <path class="cls-7" d="M765,100l-.73-7.37S782.73,59.76,788.34,57s9.35-2.81,9.35-2.81S816.39,34.52,837,44.8s69.18,75.73,69.18,75.73-34.59,2.81-29.92,29.92c0,0,34.6,88.82,25.25,89.76s-37.4-5.61-66.38,7.47S793,252.36,793,252.36l-15-48.62s-28-15.89-27.12-29.91l-40.67,18.23,3.74-34.6L738.79,129S734.11,125.21,765,100Z" transform="translate(0 0)"/>
  <path class="cls-6" d="M703.94,48.24a11.71,11.71,0,0,1-4.62,3.14c-1.81.52-4.09-.11-4.81-1.85l1.34-1.75-4-2.5,1.76-2.06-3.25-3.53,2.57-2L688,34.17c6.32-10.31,13.16-20.75,23.14-27.59s23.92-9.27,34.14-2.8c5.31,3.36,9.06,8.69,12.07,14.2,6,11.09,11.38,21.9,12.16,34.51-3.79-3.7-9.34-5.79-13.14-9.48a27.79,27.79,0,0,0-5.67-4.64c-4-2.25-8.72-2.44-13.17-3.45-3.74-.85-6.17-2.54-9-5-3.37-2.87-3.51-1.76-6.91,1.47Z" transform="translate(0 0)"/>
</svg>
